<svg width="24" height="24" viewBox="0 0 24 24" fill="none" xmlns="http://www.w3.org/2000/svg">
  <path d="M12 4C7.6 4 4 7.2 4 11.2C4 13.4 5.1 15.3 6.9 16.5L6.2 20L9.8 18.3C10.5 18.4 11.2 18.5 12 18.5C16.4 18.5 20 15.3 20 11.2C20 7.2 16.4 4 12 4Z" stroke="#0F172A" stroke-width="1.5" stroke-linejoin="round"/>
  <path d="M12 13.8V13.9" stroke="#0F172A" stroke-width="1.5" stroke-linecap="round"/>
  <path d="M10.9 10.3C10.9 9.6 11.4 9 12.1 9C12.8 9 13.3 9.5 13.3 10.2C13.3 11.3 12 11.3 12 12.4" stroke="#0F172A" stroke-width="1.5" stroke-linecap="round"/>
</svg>
